<svg xmlns="http://www.w3.org/2000/svg" width="1180" height="720" viewBox="0 0 1180 720" role="img" aria-labelledby="title desc">
<title id="title">worldquant-harness system architecture</title>
<desc id="desc">Swimlane architecture showing agent entrypoints, harness control plane, memory feedback, and explicit submission boundary.</desc>
<defs>
  <marker id="arrow" markerWidth="11" markerHeight="11" refX="9" refY="5.5" orient="auto" markerUnits="strokeWidth">
    <path d="M0,0 L10,5.5 L0,11 z" fill="#475569"/>
  </marker>
  <marker id="arrow-blue" markerWidth="11" markerHeight="11" refX="9" refY="5.5" orient="auto" markerUnits="strokeWidth">
    <path d="M0,0 L10,5.5 L0,11 z" fill="#2563eb"/>
  </marker>
  <marker id="arrow-red" markerWidth="11" markerHeight="11" refX="9" refY="5.5" orient="auto" markerUnits="strokeWidth">
    <path d="M0,0 L10,5.5 L0,11 z" fill="#dc2626"/>
  </marker>
  <style>
    text { font-family: Inter, Segoe UI, Arial, sans-serif; fill: #0f172a; letter-spacing: 0; }
    .title { font-size: 28px; font-weight: 750; }
    .subtitle { font-size: 14px; fill: #475569; }
    .lane-title { font-size: 16px; font-weight: 750; }
    .lane-note { font-size: 12px; fill: #64748b; }
    .node-title { font-size: 14px; font-weight: 750; }
    .node-body { font-size: 12px; fill: #475569; }
    .small { font-size: 12px; fill: #64748b; }
    .legend { font-size: 12px; fill: #334155; }
  </style>
</defs>
<rect width="1180" height="720" fill="#ffffff"/>

<text x="40" y="48" class="title">worldquant-harness system architecture</text>
<text x="40" y="74" class="subtitle">Agent research is routed through a harness control plane before any credentialed WQ BRAIN action.</text>

<g transform="translate(40 100)">
  <rect x="0" y="0" width="258" height="500" rx="10" fill="#eff6ff" stroke="#bfdbfe"/>
  <rect x="280" y="0" width="330" height="500" rx="10" fill="#f8fafc" stroke="#cbd5e1"/>
  <rect x="632" y="0" width="250" height="500" rx="10" fill="#f0fdf4" stroke="#bbf7d0"/>
  <rect x="904" y="0" width="196" height="500" rx="10" fill="#fff1f2" stroke="#fecdd3"/>

  <text x="22" y="32" class="lane-title">Agent interface</text>
  <text x="22" y="52" class="lane-note">Intent, tools, and batch entry</text>
  <text x="302" y="32" class="lane-title">Harness control plane</text>
  <text x="302" y="52" class="lane-note">Identity, gates, scoring, review</text>
  <text x="654" y="32" class="lane-title">Memory and evolution</text>
  <text x="654" y="52" class="lane-note">Evidence becomes next-run constraints</text>
  <text x="926" y="32" class="lane-title">Submit boundary</text>
  <text x="926" y="52" class="lane-note">Separated from public and sandbox paths</text>

  <g id="agent-lane">
    <rect x="22" y="84" width="214" height="70" rx="8" fill="#ffffff" stroke="#93c5fd" stroke-width="1.4"/>
    <text x="40" y="112" class="node-title">Human research brief</text>
    <text x="40" y="134" class="node-body">Goal, constraints, risk limits</text>

    <rect x="22" y="188" width="214" height="70" rx="8" fill="#ffffff" stroke="#93c5fd" stroke-width="1.4"/>
    <text x="40" y="216" class="node-title">Research agent</text>
    <text x="40" y="238" class="node-body">Proposes and iterates candidates</text>

    <rect x="22" y="292" width="214" height="90" rx="8" fill="#ffffff" stroke="#93c5fd" stroke-width="1.4"/>
    <text x="40" y="320" class="node-title">Entrypoints</text>
    <text x="40" y="342" class="node-body">MCP tools</text>
    <text x="40" y="360" class="node-body">CLI scripts</text>
    <text x="40" y="378" class="node-body">REST API</text>

    <line x1="129" y1="154" x2="129" y2="184" stroke="#2563eb" stroke-width="2" marker-end="url(#arrow-blue)"/>
    <line x1="129" y1="258" x2="129" y2="288" stroke="#2563eb" stroke-width="2" marker-end="url(#arrow-blue)"/>
  </g>

  <g id="control-lane">
    <rect x="302" y="84" width="286" height="58" rx="8" fill="#ffffff" stroke="#cbd5e1" stroke-width="1.4"/>
    <text x="320" y="110" class="node-title">Candidate spec</text>
    <text x="320" y="130" class="node-body">Stable ID, source tags, intent</text>

    <rect x="302" y="166" width="286" height="58" rx="8" fill="#ffffff" stroke="#cbd5e1" stroke-width="1.4"/>
    <text x="320" y="192" class="node-title">Sandbox evaluation</text>
    <text x="320" y="212" class="node-body">Guarded simulation and diagnostics</text>

    <rect x="302" y="248" width="286" height="58" rx="8" fill="#ffffff" stroke="#cbd5e1" stroke-width="1.4"/>
    <text x="320" y="274" class="node-title">Presubmit gate</text>
    <text x="320" y="294" class="node-body">Legality, similarity, self-correlation</text>

    <rect x="302" y="330" width="286" height="58" rx="8" fill="#ffffff" stroke="#cbd5e1" stroke-width="1.4"/>
    <text x="320" y="356" class="node-title">Review queue</text>
    <text x="320" y="376" class="node-body">Ready and rejected rows for audit</text>

    <rect x="302" y="412" width="286" height="58" rx="8" fill="#ffffff" stroke="#cbd5e1" stroke-width="1.4"/>
    <text x="320" y="438" class="node-title">Harness score</text>
    <text x="320" y="458" class="node-body">Workflow quality, not return forecast</text>

    <line x1="445" y1="142" x2="445" y2="162" stroke="#475569" stroke-width="2" marker-end="url(#arrow)"/>
    <line x1="445" y1="224" x2="445" y2="244" stroke="#475569" stroke-width="2" marker-end="url(#arrow)"/>
    <line x1="445" y1="306" x2="445" y2="326" stroke="#475569" stroke-width="2" marker-end="url(#arrow)"/>
    <line x1="445" y1="388" x2="445" y2="408" stroke="#475569" stroke-width="2" marker-end="url(#arrow)"/>
  </g>

  <g id="memory-lane">
    <rect x="654" y="84" width="206" height="58" rx="8" fill="#ffffff" stroke="#86efac" stroke-width="1.4"/>
    <text x="672" y="110" class="node-title">Lifecycle events</text>
    <text x="672" y="130" class="node-body">Append-only candidate trace</text>

    <rect x="654" y="166" width="206" height="58" rx="8" fill="#ffffff" stroke="#86efac" stroke-width="1.4"/>
    <text x="672" y="192" class="node-title">Failure signatures</text>
    <text x="672" y="212" class="node-body">Reusable rejection memory</text>

    <rect x="654" y="248" width="206" height="58" rx="8" fill="#ffffff" stroke="#86efac" stroke-width="1.4"/>
    <text x="672" y="274" class="node-title">Reference catalog</text>
    <text x="672" y="294" class="node-body">Allowed fields and operator context</text>

    <rect x="654" y="330" width="206" height="58" rx="8" fill="#ffffff" stroke="#86efac" stroke-width="1.4"/>
    <text x="672" y="356" class="node-title">Profile patch</text>
    <text x="672" y="376" class="node-body">Next search bias and constraints</text>
  </g>

  <g id="boundary-lane">
    <rect x="926" y="84" width="152" height="70" rx="8" fill="#ffffff" stroke="#fda4af" stroke-width="1.4"/>
    <text x="944" y="112" class="node-title">Public demo</text>
    <text x="944" y="134" class="node-body">No submit capability</text>

    <rect x="926" y="206" width="152" height="70" rx="8" fill="#ffffff" stroke="#fda4af" stroke-width="1.4"/>
    <text x="944" y="234" class="node-title">Check-only</text>
    <text x="944" y="256" class="node-body">Inspect before submit</text>

    <rect x="926" y="328" width="152" height="86" rx="8" fill="#fff7ed" stroke="#dc2626" stroke-width="2"/>
    <text x="944" y="356" class="node-title">Credentialed</text>
    <text x="944" y="378" class="node-body">WQ BRAIN submit</text>
    <text x="944" y="396" class="node-body">Explicit command only</text>

    <line x1="1002" y1="154" x2="1002" y2="202" stroke="#dc2626" stroke-width="2" marker-end="url(#arrow-red)"/>
    <line x1="1002" y1="276" x2="1002" y2="324" stroke="#dc2626" stroke-width="2" marker-end="url(#arrow-red)"/>
  </g>

  <line x1="236" y1="337" x2="298" y2="113" stroke="#2563eb" stroke-width="2.2" marker-end="url(#arrow-blue)"/>
  <line x1="588" y1="113" x2="650" y2="113" stroke="#475569" stroke-width="2" marker-end="url(#arrow)"/>
  <line x1="588" y1="277" x2="650" y2="195" stroke="#475569" stroke-width="2" marker-end="url(#arrow)"/>
  <line x1="588" y1="359" x2="922" y2="241" stroke="#dc2626" stroke-width="2" marker-end="url(#arrow-red)"/>
  <line x1="588" y1="441" x2="650" y2="359" stroke="#16a34a" stroke-width="2" marker-end="url(#arrow)"/>

  <path d="M757 388 C757 460, 166 460, 166 386" fill="none" stroke="#16a34a" stroke-width="2.2" stroke-dasharray="7 7" marker-end="url(#arrow)"/>
  <text x="282" y="486" class="small">memory feedback constrains the next candidate batch</text>

  <rect x="22" y="528" width="1056" height="74" rx="10" fill="#f8fafc" stroke="#cbd5e1"/>
  <text x="44" y="557" class="node-title">Artifact backbone</text>
  <text x="44" y="580" class="node-body">experiment.yaml / candidate_specs.jsonl / simulation_results.jsonl / review_queue.jsonl / lifecycle_events.jsonl / eval_summary.json / profile_patch.json</text>
</g>

<g transform="translate(40 664)">
  <line x1="0" y1="0" x2="44" y2="0" stroke="#2563eb" stroke-width="2.2" marker-end="url(#arrow-blue)"/>
  <text x="58" y="5" class="legend">execution flow</text>
  <line x1="170" y1="0" x2="214" y2="0" stroke="#16a34a" stroke-width="2.2" stroke-dasharray="7 7" marker-end="url(#arrow)"/>
  <text x="228" y="5" class="legend">memory feedback</text>
  <line x1="370" y1="0" x2="414" y2="0" stroke="#dc2626" stroke-width="2.2" marker-end="url(#arrow-red)"/>
  <text x="428" y="5" class="legend">real submit path requires explicit credentials and command</text>
</g>
</svg>
